<svg id="Capa_1" enable-background="new 0 0 512 512" height="512" viewBox="0 0 512 512" width="512" xmlns="http://www.w3.org/2000/svg"><g><path d="m201.677 171.673c-8.08-20.95-12.177-42.955-12.177-65.406v-46.543c8.222-1.429 14.5-8.599 14.5-17.224v-25c0-9.649-7.851-17.5-17.5-17.5h-100c-9.649 0-17.5 7.851-17.5 17.5v25c0 8.625 6.278 15.794 14.5 17.224v46.544c0 22.451-4.097 44.456-12.176 65.405l-34.913 90.515c-4.586 11.887-6.911 24.375-6.911 37.118v177.067c0 19.645 15.982 35.627 35.628 35.627h142.744c19.646 0 35.628-15.982 35.628-35.627v-50.011c0-4.142-3.357-7.5-7.5-7.5s-7.5 3.358-7.5 7.5v50.011c0 11.374-9.254 20.627-20.628 20.627h-142.744c-11.374 0-20.628-9.253-20.628-20.627v-177.067c0-10.89 1.987-21.562 5.905-31.719l34.914-90.516c3.355-8.701 6.07-17.571 8.15-26.571h86.062c2.079 9 4.794 17.87 8.15 26.571l34.913 90.516c3.918 10.157 5.905 20.829 5.905 31.719v92.056c0 4.142 3.357 7.5 7.5 7.5s7.5-3.358 7.5-7.5v-92.056c0-12.743-2.325-25.231-6.911-37.118zm-103.177-111.673h76v16.5h-76zm-14.5-42.5c0-1.378 1.121-2.5 2.5-2.5h100c1.379 0 2.5 1.122 2.5 2.5v25c0 1.378-1.121 2.5-2.5 2.5h-4.5-91-4.5c-1.379 0-2.5-1.122-2.5-2.5zm12.315 118c1.445-9.637 2.185-19.394 2.185-29.232v-14.768h76v14.768c0 9.838.74 19.596 2.185 29.232z"/><path d="m76.5 367.606c-4.143 0-7.5 3.358-7.5 7.5v85.394c0 6.893 5.607 12.5 12.5 12.5h110c6.893 0 12.5-5.607 12.5-12.5-.019-.665.036-152.862-.019-153.528-.553-36.697-30.728-66.472-67.481-66.472s-66.929 29.774-67.481 66.47c-.056.589.001 32.498-.019 33.136 0 4.142 3.357 7.5 7.5 7.5s7.5-3.358 7.5-7.5v-25.106h14.325c6.243 0 11.575-4.71 12.402-10.956 1.701-12.853 12.781-22.544 25.772-22.544s24.071 9.692 25.772 22.544c.829 6.246 6.161 10.956 12.404 10.956h14.325v143h-105v-82.894c0-4.142-3.357-7.5-7.5-7.5zm60-101.106c-19.779 0-36.751 14.26-40.313 33.5h-11.557c3.88-25.135 25.732-44.5 51.87-44.5s47.99 19.365 51.87 44.5h-11.556c-3.563-19.24-20.535-33.5-40.314-33.5z"/><path d="m106.369 429.101c7.25 8.318 18.128 12.899 30.631 12.899 13.1 0 24.259-4.684 31.424-13.19 6.183-7.34 8.657-16.782 6.967-26.584-1.904-11.048-6.728-18.528-14.335-22.231-5.648-2.749-11.61-2.744-16.556-1.856v-5.639c0-4.142-3.357-7.5-7.5-7.5s-7.5 3.358-7.5 7.5v5.694c-5.234-.96-11.603-1.001-17.48 2.042-7.418 3.841-11.943 11.323-13.449 22.24-1.358 9.842 1.411 19.297 7.798 26.625zm7.061-24.576c1.56-6.751 4.233-11.904 9.937-11.904 4.086 0 8.525 1.698 10.182 2.537 1.917 1.055 4.856 1.037 6.975-.037 2.173-1.142 9.41-3.89 14.001-1.624 3.003 1.481 5.051 5.276 6.086 11.277.938 5.447-.326 10.417-3.658 14.372-4.267 5.065-11.353 7.854-19.953 7.854-8.103 0-14.965-2.754-19.323-7.754-3.545-4.069-5.014-9.159-4.247-14.721z"/><path d="m152.5 106h-31c-4.143 0-7.5 3.358-7.5 7.5s3.357 7.5 7.5 7.5h31c4.143 0 7.5-3.358 7.5-7.5s-3.357-7.5-7.5-7.5z"/><path d="m143.5 315.5c4.143 0 7.5-3.358 7.5-7.5s-3.357-7.5-7.5-7.5h-13c-4.143 0-7.5 3.358-7.5 7.5s3.357 7.5 7.5 7.5z"/><path d="m102 338c0 4.142 3.357 7.5 7.5 7.5h55c4.143 0 7.5-3.358 7.5-7.5s-3.357-7.5-7.5-7.5h-55c-4.143 0-7.5 3.358-7.5 7.5z"/><path d="m457.154 270.43c-5.605-2.473-9.434-7.799-9.99-13.9l-17.984-196.927c7.887-1.696 13.82-8.716 13.82-17.103v-25c0-9.649-7.851-17.5-17.5-17.5h-100c-9.649 0-17.5 7.851-17.5 17.5v25c0 8.387 5.933 15.407 13.82 17.103l-17.984 196.927c-.557 6.101-4.385 11.427-9.99 13.9-15.396 6.793-25.346 22.056-25.346 38.884v185.186c0 9.649 7.851 17.5 17.5 17.5h90.071c4.143 0 7.5-3.358 7.5-7.5s-3.357-7.5-7.5-7.5h-90.071c-1.379 0-2.5-1.122-2.5-2.5v-185.187c0-10.889 6.438-20.765 16.4-25.16 10.59-4.672 17.821-14.734 18.873-26.26l2.004-21.947h27.723c4.143 0 7.5-3.358 7.5-7.5s-3.357-7.5-7.5-7.5h-26.352l9.589-105h87.526l9.589 105h-45.352c-4.143 0-7.5 3.358-7.5 7.5s3.357 7.5 7.5 7.5h46.722l2.004 21.946c1.052 11.526 8.283 21.588 18.873 26.26 9.963 4.396 16.4 14.271 16.4 25.16v185.188c0 1.378-1.121 2.5-2.5 2.5h-53.929c-4.143 0-7.5 3.358-7.5 7.5s3.357 7.5 7.5 7.5h53.93c9.649 0 17.5-7.851 17.5-17.5v-185.187c0-16.828-9.949-32.09-25.346-38.883zm-134.154-252.93c0-1.378 1.121-2.5 2.5-2.5h100c1.379 0 2.5 1.122 2.5 2.5v25c0 1.378-1.121 2.5-2.5 2.5h-4.5-91-4.5c-1.379 0-2.5-1.122-2.5-2.5zm10.107 83.447 3.74-40.947h77.307l3.74 40.947z"/><path d="m443 460.5v-143c0-6.893-5.607-12.5-12.5-12.5h-109.987c-6.893 0-12.5 5.607-12.5 12.499l-.013 143.001c0 6.893 5.607 12.5 12.5 12.5h110c6.893 0 12.5-5.607 12.5-12.5zm-15-2.5h-105l.013-138h104.987z"/><path d="m376 443c13.1 0 24.259-4.684 31.424-13.19 6.183-7.34 8.657-16.782 6.967-26.584-1.904-11.048-6.728-18.528-14.335-22.231-5.648-2.749-11.61-2.744-16.556-1.856v-5.639c0-4.142-3.357-7.5-7.5-7.5s-7.5 3.358-7.5 7.5v5.693c-5.234-.96-11.603-1.001-17.48 2.042-7.418 3.841-11.943 11.323-13.449 22.24-1.357 9.842 1.412 19.298 7.799 26.625 7.249 8.319 18.127 12.9 30.63 12.9zm-23.57-37.475c1.56-6.751 2.465-11.737 9.937-11.904 4.086 0 8.525 1.698 10.182 2.537 2.163.852 4.956.845 6.975-.037 2.172-1.142 9.41-3.89 14.001-1.624 3.003 1.481 5.051 5.276 6.086 11.277.938 5.447-.326 10.417-3.658 14.372-4.267 5.065-11.353 7.854-19.953 7.854-8.103 0-14.965-2.754-19.323-7.754-3.545-4.069-5.014-9.159-4.247-14.721z"/><path d="m348.5 350.5h55c4.143 0 7.5-3.358 7.5-7.5s-3.357-7.5-7.5-7.5h-55c-4.143 0-7.5 3.358-7.5 7.5s3.357 7.5 7.5 7.5z"/><path d="m357.915 145.947h35.17c4.143 0 7.5-3.358 7.5-7.5s-3.357-7.5-7.5-7.5h-35.17c-4.143 0-7.5 3.358-7.5 7.5s3.357 7.5 7.5 7.5z"/><path d="m375.5 205.5c16.542 0 29.5-9.883 29.5-22.5s-12.958-22.5-29.5-22.5-29.5 9.883-29.5 22.5 12.958 22.5 29.5 22.5zm0-30c8.852 0 14.5 4.442 14.5 7.5s-5.648 7.5-14.5 7.5-14.5-4.442-14.5-7.5 5.648-7.5 14.5-7.5z"/></g></svg>